<svg id="visual" viewBox="0 0 400 100" width="400" height="100" xmlns="http://www.w3.org/2000/svg" xmlns:xlink="http://www.w3.org/1999/xlink" version="1.1"><rect x="0" y="0" width="400" height="100" fill="#434C5E"></rect><path d="M0 34L44 47L89 11L133 42L178 38L222 44L267 19L311 41L356 35L400 37L400 101L356 101L311 101L267 101L222 101L178 101L133 101L89 101L44 101L0 101Z" fill="#81a1c1"></path><path d="M0 26L44 36L89 59L133 23L178 39L222 54L267 29L311 48L356 30L400 53L400 101L356 101L311 101L267 101L222 101L178 101L133 101L89 101L44 101L0 101Z" fill="#7a9bbd"></path><path d="M0 46L44 52L89 68L133 60L178 55L222 64L267 61L311 47L356 45L400 36L400 101L356 101L311 101L267 101L222 101L178 101L133 101L89 101L44 101L0 101Z" fill="#7394b9"></path><path d="M0 58L44 68L89 52L133 74L178 69L222 59L267 51L311 67L356 70L400 56L400 101L356 101L311 101L267 101L222 101L178 101L133 101L89 101L44 101L0 101Z" fill="#6c8eb5"></path><path d="M0 82L44 81L89 81L133 67L178 77L222 63L267 80L311 63L356 80L400 82L400 101L356 101L311 101L267 101L222 101L178 101L133 101L89 101L44 101L0 101Z" fill="#6587b0"></path><path d="M0 76L44 85L89 87L133 75L178 89L222 86L267 78L311 85L356 75L400 76L400 101L356 101L311 101L267 101L222 101L178 101L133 101L89 101L44 101L0 101Z" fill="#5e81ac"></path></svg>