<svg id="visual" viewBox="0 0 400 100" width="400" height="100" xmlns="http://www.w3.org/2000/svg" xmlns:xlink="http://www.w3.org/1999/xlink" version="1.1"><rect x="0" y="0" width="400" height="100" fill="#3B4252"></rect><path d="M0 18L9.5 21.2C19 24.3 38 30.7 57 30.8C76 31 95 25 114 23C133 21 152 23 171.2 24.7C190.3 26.3 209.7 27.7 228.8 28.7C248 29.7 267 30.3 286 32.7C305 35 324 39 343 37.8C362 36.7 381 30.3 390.5 27.2L400 24L400 101L390.5 101C381 101 362 101 343 101C324 101 305 101 286 101C267 101 248 101 228.8 101C209.7 101 190.3 101 171.2 101C152 101 133 101 114 101C95 101 76 101 57 101C38 101 19 101 9.5 101L0 101Z" fill="#5e81ac"></path><path d="M0 43L9.5 43.3C19 43.7 38 44.3 57 46.2C76 48 95 51 114 51.3C133 51.7 152 49.3 171.2 46.8C190.3 44.3 209.7 41.7 228.8 39.8C248 38 267 37 286 37.8C305 38.7 324 41.3 343 40C362 38.7 381 33.3 390.5 30.7L400 28L400 101L390.5 101C381 101 362 101 343 101C324 101 305 101 286 101C267 101 248 101 228.8 101C209.7 101 190.3 101 171.2 101C152 101 133 101 114 101C95 101 76 101 57 101C38 101 19 101 9.5 101L0 101Z" fill="#5a769c"></path><path d="M0 55L9.5 54.2C19 53.3 38 51.7 57 51.7C76 51.7 95 53.3 114 52C133 50.7 152 46.3 171.2 45C190.3 43.7 209.7 45.3 228.8 48.8C248 52.3 267 57.7 286 60.7C305 63.7 324 64.3 343 61.7C362 59 381 53 390.5 50L400 47L400 101L390.5 101C381 101 362 101 343 101C324 101 305 101 286 101C267 101 248 101 228.8 101C209.7 101 190.3 101 171.2 101C152 101 133 101 114 101C95 101 76 101 57 101C38 101 19 101 9.5 101L0 101Z" fill="#556b8c"></path><path d="M0 62L9.5 60.5C19 59 38 56 57 55C76 54 95 55 114 55.2C133 55.3 152 54.7 171.2 54.8C190.3 55 209.7 56 228.8 56.7C248 57.3 267 57.7 286 59.5C305 61.3 324 64.7 343 66.5C362 68.3 381 68.7 390.5 68.8L400 69L400 101L390.5 101C381 101 362 101 343 101C324 101 305 101 286 101C267 101 248 101 228.8 101C209.7 101 190.3 101 171.2 101C152 101 133 101 114 101C95 101 76 101 57 101C38 101 19 101 9.5 101L0 101Z" fill="#4f617c"></path><path d="M0 67L9.5 67.7C19 68.3 38 69.7 57 70.3C76 71 95 71 114 71.7C133 72.3 152 73.7 171.2 75.3C190.3 77 209.7 79 228.8 78.3C248 77.7 267 74.3 286 74.3C305 74.3 324 77.7 343 78.5C362 79.3 381 77.7 390.5 76.8L400 76L400 101L390.5 101C381 101 362 101 343 101C324 101 305 101 286 101C267 101 248 101 228.8 101C209.7 101 190.3 101 171.2 101C152 101 133 101 114 101C95 101 76 101 57 101C38 101 19 101 9.5 101L0 101Z" fill="#49566d"></path><path d="M0 80L9.5 80.5C19 81 38 82 57 83.7C76 85.3 95 87.7 114 87.5C133 87.3 152 84.7 171.2 84.7C190.3 84.7 209.7 87.3 228.8 88.2C248 89 267 88 286 86.5C305 85 324 83 343 83.3C362 83.7 381 86.3 390.5 87.7L400 89L400 101L390.5 101C381 101 362 101 343 101C324 101 305 101 286 101C267 101 248 101 228.8 101C209.7 101 190.3 101 171.2 101C152 101 133 101 114 101C95 101 76 101 57 101C38 101 19 101 9.5 101L0 101Z" fill="#434c5e"></path></svg>