<svg id="visual" viewBox="0 0 900 600" width="900" height="600" xmlns="http://www.w3.org/2000/svg" xmlns:xlink="http://www.w3.org/1999/xlink" version="1.1"><g stroke-width="1" stroke-linejoin="bevel"><path d="M473 295.1L481 315.9L488 280.1Z" fill="#3b4252" stroke="#3b4252"></path><path d="M473 295.1L477 328L481 315.9Z" fill="#323845" stroke="#323845"></path><path d="M477 328L501 333L481 315.9Z" fill="#333a47" stroke="#333a47"></path><path d="M481 315.9L501 333L488 280.1Z" fill="#373e4d" stroke="#373e4d"></path><path d="M501 333L508 260.1L488 280.1Z" fill="#353c4b" stroke="#353c4b"></path><path d="M560 232.1L510 253.3L508 260.1Z" fill="#3b4252" stroke="#3b4252"></path><path d="M508 260.1L510 253.3L488 280.1Z" fill="#383f4e" stroke="#383f4e"></path><path d="M488 280.1L430 278L473 295.1Z" fill="#303744" stroke="#303744"></path><path d="M510 253.3L430 278L488 280.1Z" fill="#343b49" stroke="#343b49"></path><path d="M473 295.1L419 339.9L477 328Z" fill="#303744" stroke="#303744"></path><path d="M501 333L551 339L508 260.1Z" fill="#303744" stroke="#303744"></path><path d="M430 278L419 339.9L473 295.1Z" fill="#3a4150" stroke="#3a4150"></path><path d="M477 328L469 398.6L501 333Z" fill="#383f4e" stroke="#383f4e"></path><path d="M552 397.6L567 363.9L551 339Z" fill="#343b49" stroke="#343b49"></path><path d="M419 339.9L440 365.9L477 328Z" fill="#2e3440" stroke="#2e3440"></path><path d="M551 339L560 232.1L508 260.1Z" fill="#3a4150" stroke="#3a4150"></path><path d="M388 230.1L386 269.1L430 278Z" fill="#343b49" stroke="#343b49"></path><path d="M552 397.6L551 339L501 333Z" fill="#343b49" stroke="#343b49"></path><path d="M551 339L623 317L560 232.1Z" fill="#353c4b" stroke="#353c4b"></path><path d="M440 365.9L469 398.6L477 328Z" fill="#3b4252" stroke="#3b4252"></path><path d="M379 408.7L442 389.7L440 365.9Z" fill="#353c4b" stroke="#353c4b"></path><path d="M440 365.9L442 389.7L469 398.6Z" fill="#323845" stroke="#323845"></path><path d="M493 187.4L430 278L510 253.3Z" fill="#323845" stroke="#323845"></path><path d="M430 278L383 281L419 339.9Z" fill="#383f4e" stroke="#383f4e"></path><path d="M419 339.9L379 408.7L440 365.9Z" fill="#323845" stroke="#323845"></path><path d="M386 269.1L383 281L430 278Z" fill="#3b4252" stroke="#3b4252"></path><path d="M508 184.3L493 187.4L510 253.3Z" fill="#303744" stroke="#303744"></path><path d="M490 487.3L490 413.7L445 484.3Z" fill="#333a47" stroke="#333a47"></path><path d="M469 398.6L490 413.7L501 333Z" fill="#353c4b" stroke="#353c4b"></path><path d="M490 413.7L552 397.6L501 333Z" fill="#343b49" stroke="#343b49"></path><path d="M386 269.1L381 269L383 281Z" fill="#3a4150" stroke="#3a4150"></path><path d="M378 232.3L381 269L386 269.1Z" fill="#3a4150" stroke="#3a4150"></path><path d="M560 232.1L508 184.3L510 253.3Z" fill="#343b49" stroke="#343b49"></path><path d="M552 397.6L586 369.9L567 363.9Z" fill="#2e3440" stroke="#2e3440"></path><path d="M567 363.9L586 369.9L551 339Z" fill="#303744" stroke="#303744"></path><path d="M490 413.7L549 406.7L552 397.6Z" fill="#343b49" stroke="#343b49"></path><path d="M552 397.6L574 415.7L586 369.9Z" fill="#383f4e" stroke="#383f4e"></path><path d="M412 200.4L388 230.1L430 278Z" fill="#3b4252" stroke="#3b4252"></path><path d="M427 182.3L412 200.4L493 187.4Z" fill="#303744" stroke="#303744"></path><path d="M493 187.4L412 200.4L430 278Z" fill="#343b49" stroke="#343b49"></path><path d="M586 369.9L623 317L551 339Z" fill="#303744" stroke="#303744"></path><path d="M379 199.3L378 232.3L388 230.1Z" fill="#323845" stroke="#323845"></path><path d="M388 230.1L378 232.3L386 269.1Z" fill="#343b49" stroke="#343b49"></path><path d="M434 144.6L427 182.3L493 187.4Z" fill="#383f4e" stroke="#383f4e"></path><path d="M412 200.4L399 201.4L388 230.1Z" fill="#333a47" stroke="#333a47"></path><path d="M427 182.3L399 201.4L412 200.4Z" fill="#2e3440" stroke="#2e3440"></path><path d="M560 232.1L540 166.4L508 184.3Z" fill="#2f3542" stroke="#2f3542"></path><path d="M465 129.6L434 144.6L493 187.4Z" fill="#3a4150" stroke="#3a4150"></path><path d="M579 178.3L540 166.4L560 232.1Z" fill="#303744" stroke="#303744"></path><path d="M529 449.6L574 415.7L549 406.7Z" fill="#323845" stroke="#323845"></path><path d="M549 406.7L574 415.7L552 397.6Z" fill="#3b4252" stroke="#3b4252"></path><path d="M586 369.9L636 328L623 317Z" fill="#3a4150" stroke="#3a4150"></path><path d="M629 398.7L636 328L586 369.9Z" fill="#383f4e" stroke="#383f4e"></path><path d="M623 317L639 295.1L560 232.1Z" fill="#353c4b" stroke="#353c4b"></path><path d="M647 316.9L639 295.1L623 317Z" fill="#3a4150" stroke="#3a4150"></path><path d="M308 272.1L344 308.9L381 269Z" fill="#3b4252" stroke="#3b4252"></path><path d="M381 269L344 308.9L383 281Z" fill="#303744" stroke="#303744"></path><path d="M383 281L344 308.9L419 339.9Z" fill="#3a4150" stroke="#3a4150"></path><path d="M637 243.3L579 178.3L560 232.1Z" fill="#303744" stroke="#303744"></path><path d="M406 132.6L379 199.3L399 201.4Z" fill="#3b4252" stroke="#3b4252"></path><path d="M399 201.4L379 199.3L388 230.1Z" fill="#303744" stroke="#303744"></path><path d="M378 232.3L308 272.1L381 269Z" fill="#333a47" stroke="#333a47"></path><path d="M533 460.6L529 449.6L519 473.4Z" fill="#353c4b" stroke="#353c4b"></path><path d="M490 413.7L529 449.6L549 406.7Z" fill="#3b4252" stroke="#3b4252"></path><path d="M639 295.1L637 243.3L560 232.1Z" fill="#343b49" stroke="#343b49"></path><path d="M668 319.9L647 316.9L636 328Z" fill="#373e4d" stroke="#373e4d"></path><path d="M636 328L647 316.9L623 317Z" fill="#333a47" stroke="#333a47"></path><path d="M639 295.1L664 260.1L637 243.3Z" fill="#343b49" stroke="#343b49"></path><path d="M333 359.9L379 408.7L419 339.9Z" fill="#2f3542" stroke="#2f3542"></path><path d="M445 484.3L490 413.7L469 398.6Z" fill="#3b4252" stroke="#3b4252"></path><path d="M571 148.6L573 160.4L610 157.6Z" fill="#2f3542" stroke="#2f3542"></path><path d="M579 178.3L573 160.4L540 166.4Z" fill="#353c4b" stroke="#353c4b"></path><path d="M465 129.6L493 187.4L508 184.3Z" fill="#323845" stroke="#323845"></path><path d="M642 450.4L613 408.6L574 415.7Z" fill="#2f3542" stroke="#2f3542"></path><path d="M574 415.7L613 408.6L586 369.9Z" fill="#323845" stroke="#323845"></path><path d="M406 132.6L368 193.4L379 199.3Z" fill="#303744" stroke="#303744"></path><path d="M379 199.3L368 193.4L378 232.3Z" fill="#303744" stroke="#303744"></path><path d="M465 129.6L508 184.3L531 110.7Z" fill="#373e4d" stroke="#373e4d"></path><path d="M427 182.3L406 132.6L399 201.4Z" fill="#303744" stroke="#303744"></path><path d="M519 473.4L529 449.6L490 413.7Z" fill="#2e3440" stroke="#2e3440"></path><path d="M529 449.6L533 460.6L574 415.7Z" fill="#2e3440" stroke="#2e3440"></path><path d="M308 272.1L326 321L344 308.9Z" fill="#3a4150" stroke="#3a4150"></path><path d="M344 308.9L333 359.9L419 339.9Z" fill="#2f3542" stroke="#2f3542"></path><path d="M642 450.4L629 398.7L613 408.6Z" fill="#3a4150" stroke="#3a4150"></path><path d="M613 408.6L629 398.7L586 369.9Z" fill="#323845" stroke="#323845"></path><path d="M610 157.6L573 160.4L579 178.3Z" fill="#303744" stroke="#303744"></path><path d="M573 160.4L571 148.6L540 166.4Z" fill="#303744" stroke="#303744"></path><path d="M326 321L333 359.9L344 308.9Z" fill="#323845" stroke="#323845"></path><path d="M531 110.7L508 184.3L540 166.4Z" fill="#303744" stroke="#303744"></path><path d="M490 487.3L519 473.4L490 413.7Z" fill="#383f4e" stroke="#383f4e"></path><path d="M533 460.6L559 488.3L574 415.7Z" fill="#383f4e" stroke="#383f4e"></path><path d="M668 319.9L639 295.1L647 316.9Z" fill="#343b49" stroke="#343b49"></path><path d="M668 319.9L664 260.1L639 295.1Z" fill="#3a4150" stroke="#3a4150"></path><path d="M657 186.4L610 157.6L579 178.3Z" fill="#383f4e" stroke="#383f4e"></path><path d="M680 375.7L668 319.9L636 328Z" fill="#3a4150" stroke="#3a4150"></path><path d="M302 393.7L333 376.7L333 359.9Z" fill="#353c4b" stroke="#353c4b"></path><path d="M333 359.9L333 376.7L379 408.7Z" fill="#303744" stroke="#303744"></path><path d="M333 376.7L336 395.6L379 408.7Z" fill="#333a47" stroke="#333a47"></path><path d="M445 484.3L469 398.6L442 389.7Z" fill="#3a4150" stroke="#3a4150"></path><path d="M659 205.3L579 178.3L637 243.3Z" fill="#373e4d" stroke="#373e4d"></path><path d="M302 262L308 272.1L378 232.3Z" fill="#3b4252" stroke="#3b4252"></path><path d="M283 357.9L302 393.7L333 359.9Z" fill="#3a4150" stroke="#3a4150"></path><path d="M333 376.7L302 393.7L336 395.6Z" fill="#303744" stroke="#303744"></path><path d="M445 484.3L442 389.7L379 408.7Z" fill="#333a47" stroke="#333a47"></path><path d="M434 144.6L406 132.6L427 182.3Z" fill="#2f3542" stroke="#2f3542"></path><path d="M296 216.3L302 262L378 232.3Z" fill="#353c4b" stroke="#353c4b"></path><path d="M465 129.6L406 132.6L434 144.6Z" fill="#323845" stroke="#323845"></path><path d="M418 491.4L445 484.3L379 408.7Z" fill="#2f3542" stroke="#2f3542"></path><path d="M664 260.1L659 205.3L637 243.3Z" fill="#303744" stroke="#303744"></path><path d="M563 117.7L540 166.4L571 148.6Z" fill="#373e4d" stroke="#373e4d"></path><path d="M563 117.7L531 110.7L540 166.4Z" fill="#353c4b" stroke="#353c4b"></path><path d="M383 87.7L372 124.6L406 132.6Z" fill="#3a4150" stroke="#3a4150"></path><path d="M296 216.3L378 232.3L368 193.4Z" fill="#343b49" stroke="#343b49"></path><path d="M283 357.9L333 359.9L326 321Z" fill="#343b49" stroke="#343b49"></path><path d="M597 103.7L563 117.7L571 148.6Z" fill="#323845" stroke="#323845"></path><path d="M445 484.3L488 496.4L490 487.3Z" fill="#373e4d" stroke="#373e4d"></path><path d="M490 487.3L510 497.4L519 473.4Z" fill="#3a4150" stroke="#3a4150"></path><path d="M519 473.4L559 488.3L533 460.6Z" fill="#3a4150" stroke="#3a4150"></path><path d="M488 496.4L510 497.4L490 487.3Z" fill="#383f4e" stroke="#383f4e"></path><path d="M659 205.3L657 186.4L579 178.3Z" fill="#2f3542" stroke="#2f3542"></path><path d="M597 103.7L570 95.7L563 117.7Z" fill="#3a4150" stroke="#3a4150"></path><path d="M547 509.3L559 488.3L519 473.4Z" fill="#383f4e" stroke="#383f4e"></path><path d="M705 415.7L680 375.7L629 398.7Z" fill="#2e3440" stroke="#2e3440"></path><path d="M629 398.7L680 375.7L636 328Z" fill="#383f4e" stroke="#383f4e"></path><path d="M668 319.9L704 291L664 260.1Z" fill="#343b49" stroke="#343b49"></path><path d="M664 260.1L694 220.3L659 205.3Z" fill="#353c4b" stroke="#353c4b"></path><path d="M659 205.3L695 207.4L657 186.4Z" fill="#383f4e" stroke="#383f4e"></path><path d="M371 467.6L418 491.4L379 408.7Z" fill="#2f3542" stroke="#2f3542"></path><path d="M445 484.3L439 533.1L488 496.4Z" fill="#303744" stroke="#303744"></path><path d="M347 447.6L369 465.4L379 408.7Z" fill="#373e4d" stroke="#373e4d"></path><path d="M369 465.4L371 467.6L379 408.7Z" fill="#353c4b" stroke="#353c4b"></path><path d="M336 395.6L347 447.6L379 408.7Z" fill="#2f3542" stroke="#2f3542"></path><path d="M369 465.4L340 488.3L371 467.6Z" fill="#303744" stroke="#303744"></path><path d="M307 419.7L347 447.6L336 395.6Z" fill="#3a4150" stroke="#3a4150"></path><path d="M707 314.9L704 291L668 319.9Z" fill="#353c4b" stroke="#353c4b"></path><path d="M474 82.7L406 132.6L465 129.6Z" fill="#343b49" stroke="#343b49"></path><path d="M406 132.6L372 124.6L368 193.4Z" fill="#3b4252" stroke="#3b4252"></path><path d="M283 357.9L326 321L260 285.1Z" fill="#2f3542" stroke="#2f3542"></path><path d="M559 488.3L642 450.4L574 415.7Z" fill="#3b4252" stroke="#3b4252"></path><path d="M310 148.4L296 216.3L368 193.4Z" fill="#2f3542" stroke="#2f3542"></path><path d="M260 285.1L326 321L308 272.1Z" fill="#373e4d" stroke="#373e4d"></path><path d="M296 216.3L291 228.3L302 262Z" fill="#353c4b" stroke="#353c4b"></path><path d="M680 375.7L707 314.9L668 319.9Z" fill="#2e3440" stroke="#2e3440"></path><path d="M547 509.3L557 505.4L559 488.3Z" fill="#353c4b" stroke="#353c4b"></path><path d="M559 488.3L637 541.3L642 450.4Z" fill="#303744" stroke="#303744"></path><path d="M547 509.3L519 473.4L510 497.4Z" fill="#2e3440" stroke="#2e3440"></path><path d="M547 509.3L510 497.4L487 556.1Z" fill="#2e3440" stroke="#2e3440"></path><path d="M704 291L694 220.3L664 260.1Z" fill="#373e4d" stroke="#373e4d"></path><path d="M487 556.1L510 497.4L488 496.4Z" fill="#373e4d" stroke="#373e4d"></path><path d="M260 285.1L308 272.1L302 262Z" fill="#383f4e" stroke="#383f4e"></path><path d="M573 57.9L474 82.7L531 110.7Z" fill="#323845" stroke="#323845"></path><path d="M531 110.7L474 82.7L465 129.6Z" fill="#373e4d" stroke="#373e4d"></path><path d="M597 103.7L571 148.6L610 157.6Z" fill="#373e4d" stroke="#373e4d"></path><path d="M563 117.7L570 95.7L531 110.7Z" fill="#383f4e" stroke="#383f4e"></path><path d="M597 103.7L610 157.6L643 101.7Z" fill="#2e3440" stroke="#2e3440"></path><path d="M383 87.7L353 128.6L372 124.6Z" fill="#343b49" stroke="#343b49"></path><path d="M372 124.6L353 128.6L368 193.4Z" fill="#2f3542" stroke="#2f3542"></path><path d="M300 418.6L307 419.7L302 393.7Z" fill="#343b49" stroke="#343b49"></path><path d="M302 393.7L307 419.7L336 395.6Z" fill="#383f4e" stroke="#383f4e"></path><path d="M347 447.6L340 488.3L369 465.4Z" fill="#3a4150" stroke="#3a4150"></path><path d="M643 101.7L610 157.6L646 102.6Z" fill="#2f3542" stroke="#2f3542"></path><path d="M733 233.1L695 207.4L694 220.3Z" fill="#3b4252" stroke="#3b4252"></path><path d="M694 220.3L695 207.4L659 205.3Z" fill="#353c4b" stroke="#353c4b"></path><path d="M701 164.6L695 207.4L767 179.4Z" fill="#2e3440" stroke="#2e3440"></path><path d="M296 216.3L282 218.1L291 228.3Z" fill="#323845" stroke="#323845"></path><path d="M291 228.3L260 285.1L302 262Z" fill="#3b4252" stroke="#3b4252"></path><path d="M278 141.4L282 218.1L296 216.3Z" fill="#373e4d" stroke="#373e4d"></path><path d="M260 409.7L300 418.6L302 393.7Z" fill="#353c4b" stroke="#353c4b"></path><path d="M336 492.4L340 488.3L299 478.3Z" fill="#2f3542" stroke="#2f3542"></path><path d="M282 218.1L260 285.1L291 228.3Z" fill="#2f3542" stroke="#2f3542"></path><path d="M283 357.9L260 409.7L302 393.7Z" fill="#353c4b" stroke="#353c4b"></path><path d="M353 128.6L310 148.4L368 193.4Z" fill="#383f4e" stroke="#383f4e"></path><path d="M474 82.7L383 87.7L406 132.6Z" fill="#2f3542" stroke="#2f3542"></path><path d="M353 128.6L325 104.7L310 148.4Z" fill="#3b4252" stroke="#3b4252"></path><path d="M652 538.1L671 458.6L642 450.4Z" fill="#343b49" stroke="#343b49"></path><path d="M642 450.4L705 415.7L629 398.7Z" fill="#373e4d" stroke="#373e4d"></path><path d="M680 375.7L783 368.7L707 314.9Z" fill="#333a47" stroke="#333a47"></path><path d="M382 534.3L439 533.1L418 491.4Z" fill="#343b49" stroke="#343b49"></path><path d="M418 491.4L439 533.1L445 484.3Z" fill="#373e4d" stroke="#373e4d"></path><path d="M382 534.3L418 491.4L371 467.6Z" fill="#353c4b" stroke="#353c4b"></path><path d="M671 458.6L705 415.7L642 450.4Z" fill="#333a47" stroke="#333a47"></path><path d="M340 488.3L347 447.6L299 478.3Z" fill="#383f4e" stroke="#383f4e"></path><path d="M299 478.3L347 447.6L287 464.4Z" fill="#303744" stroke="#303744"></path><path d="M340 488.3L382 534.3L371 467.6Z" fill="#3b4252" stroke="#3b4252"></path><path d="M733 233.1L694 220.3L704 291Z" fill="#343b49" stroke="#343b49"></path><path d="M695 207.4L701 164.6L657 186.4Z" fill="#383f4e" stroke="#383f4e"></path><path d="M646 102.6L610 157.6L657 186.4Z" fill="#333a47" stroke="#333a47"></path><path d="M597 103.7L594 70.9L570 95.7Z" fill="#383f4e" stroke="#383f4e"></path><path d="M570 95.7L573 57.9L531 110.7Z" fill="#2e3440" stroke="#2e3440"></path><path d="M753 285.1L704 291L707 314.9Z" fill="#2f3542" stroke="#2f3542"></path><path d="M753 285.1L733 233.1L704 291Z" fill="#383f4e" stroke="#383f4e"></path><path d="M680 106.6L646 102.6L657 186.4Z" fill="#383f4e" stroke="#383f4e"></path><path d="M662 29.9L594 70.9L643 101.7Z" fill="#2f3542" stroke="#2f3542"></path><path d="M643 101.7L594 70.9L597 103.7Z" fill="#333a47" stroke="#333a47"></path><path d="M474 82.7L425 34.9L383 87.7Z" fill="#323845" stroke="#323845"></path><path d="M512 0L573 57.9L586 0Z" fill="#3b4252" stroke="#3b4252"></path><path d="M594 70.9L573 57.9L570 95.7Z" fill="#343b49" stroke="#343b49"></path><path d="M484 586.1L487 556.1L437 600Z" fill="#353c4b" stroke="#353c4b"></path><path d="M439 533.1L487 556.1L488 496.4Z" fill="#3a4150" stroke="#3a4150"></path><path d="M547 509.3L589 544.1L557 505.4Z" fill="#303744" stroke="#303744"></path><path d="M557 505.4L589 544.1L559 488.3Z" fill="#373e4d" stroke="#373e4d"></path><path d="M767 179.4L707 158.4L701 164.6Z" fill="#2f3542" stroke="#2f3542"></path><path d="M701 164.6L680 106.6L657 186.4Z" fill="#333a47" stroke="#333a47"></path><path d="M383 87.7L325 104.7L353 128.6Z" fill="#323845" stroke="#323845"></path><path d="M310 148.4L278 141.4L296 216.3Z" fill="#353c4b" stroke="#353c4b"></path><path d="M225 359.9L260 409.7L283 357.9Z" fill="#343b49" stroke="#343b49"></path><path d="M287 464.4L347 447.6L307 419.7Z" fill="#2f3542" stroke="#2f3542"></path><path d="M336 492.4L382 534.3L340 488.3Z" fill="#343b49" stroke="#343b49"></path><path d="M765 309L753 285.1L707 314.9Z" fill="#323845" stroke="#323845"></path><path d="M733 233.1L767 179.4L695 207.4Z" fill="#353c4b" stroke="#353c4b"></path><path d="M530 578.1L589 544.1L547 509.3Z" fill="#2f3542" stroke="#2f3542"></path><path d="M287 464.4L307 419.7L300 418.6Z" fill="#2e3440" stroke="#2e3440"></path><path d="M336 492.4L379 558.1L382 534.3Z" fill="#353c4b" stroke="#353c4b"></path><path d="M260 409.7L287 464.4L300 418.6Z" fill="#2f3542" stroke="#2f3542"></path><path d="M671 458.6L711 448.4L705 415.7Z" fill="#343b49" stroke="#343b49"></path><path d="M783 368.7L765 309L707 314.9Z" fill="#343b49" stroke="#343b49"></path><path d="M701 470.4L711 448.4L671 458.6Z" fill="#383f4e" stroke="#383f4e"></path><path d="M325 104.7L278 141.4L310 148.4Z" fill="#333a47" stroke="#333a47"></path><path d="M282 218.1L222 219.3L260 285.1Z" fill="#3a4150" stroke="#3a4150"></path><path d="M707 158.4L680 106.6L701 164.6Z" fill="#323845" stroke="#323845"></path><path d="M646 102.6L662 29.9L643 101.7Z" fill="#3b4252" stroke="#3b4252"></path><path d="M695 480.3L701 470.4L671 458.6Z" fill="#2e3440" stroke="#2e3440"></path><path d="M652 538.1L695 480.3L671 458.6Z" fill="#383f4e" stroke="#383f4e"></path><path d="M783 368.7L680 375.7L705 415.7Z" fill="#2e3440" stroke="#2e3440"></path><path d="M753 285.1L768 209.3L733 233.1Z" fill="#2f3542" stroke="#2f3542"></path><path d="M483 0L425 34.9L474 82.7Z" fill="#323845" stroke="#323845"></path><path d="M383 87.7L354 54.9L325 104.7Z" fill="#3a4150" stroke="#3a4150"></path><path d="M222 491.4L300 494.3L287 464.4Z" fill="#3a4150" stroke="#3a4150"></path><path d="M287 464.4L300 494.3L299 478.3Z" fill="#323845" stroke="#323845"></path><path d="M299 478.3L300 494.3L336 492.4Z" fill="#383f4e" stroke="#383f4e"></path><path d="M186 337L225 359.9L260 285.1Z" fill="#383f4e" stroke="#383f4e"></path><path d="M260 285.1L225 359.9L283 357.9Z" fill="#2e3440" stroke="#2e3440"></path><path d="M260 409.7L231 447.6L287 464.4Z" fill="#3a4150" stroke="#3a4150"></path><path d="M278 141.4L231 207.4L282 218.1Z" fill="#2e3440" stroke="#2e3440"></path><path d="M721 461.6L732 440.4L711 448.4Z" fill="#323845" stroke="#323845"></path><path d="M711 448.4L732 440.4L705 415.7Z" fill="#353c4b" stroke="#353c4b"></path><path d="M721 461.6L711 448.4L701 470.4Z" fill="#383f4e" stroke="#383f4e"></path><path d="M695 480.3L721 461.6L701 470.4Z" fill="#2e3440" stroke="#2e3440"></path><path d="M487 556.1L530 578.1L547 509.3Z" fill="#343b49" stroke="#343b49"></path><path d="M484 586.1L530 578.1L487 556.1Z" fill="#383f4e" stroke="#383f4e"></path><path d="M425 34.9L354 54.9L383 87.7Z" fill="#2e3440" stroke="#2e3440"></path><path d="M325 104.7L268 129.6L278 141.4Z" fill="#2f3542" stroke="#2f3542"></path><path d="M264 112.7L268 129.6L325 104.7Z" fill="#343b49" stroke="#343b49"></path><path d="M278 141.4L218 181.3L231 207.4Z" fill="#373e4d" stroke="#373e4d"></path><path d="M589 544.1L637 541.3L559 488.3Z" fill="#2e3440" stroke="#2e3440"></path><path d="M724 519.1L761 460.6L721 461.6Z" fill="#303744" stroke="#303744"></path><path d="M611 600L637 541.3L589 544.1Z" fill="#3a4150" stroke="#3a4150"></path><path d="M218 181.3L222 219.3L231 207.4Z" fill="#3a4150" stroke="#3a4150"></path><path d="M231 207.4L222 219.3L282 218.1Z" fill="#2e3440" stroke="#2e3440"></path><path d="M342 600L379 558.1L337 600Z" fill="#3b4252" stroke="#3b4252"></path><path d="M382 534.3L379 558.1L439 533.1Z" fill="#353c4b" stroke="#353c4b"></path><path d="M437 600L487 556.1L439 533.1Z" fill="#343b49" stroke="#343b49"></path><path d="M657 600L652 538.1L637 541.3Z" fill="#353c4b" stroke="#353c4b"></path><path d="M637 541.3L652 538.1L642 450.4Z" fill="#323845" stroke="#323845"></path><path d="M793 291L768 209.3L753 285.1Z" fill="#3b4252" stroke="#3b4252"></path><path d="M707 158.4L726 127.6L680 106.6Z" fill="#303744" stroke="#303744"></path><path d="M767 179.4L726 127.6L707 158.4Z" fill="#3b4252" stroke="#3b4252"></path><path d="M488 0L496 6.9L512 0Z" fill="#343b49" stroke="#343b49"></path><path d="M573 57.9L496 6.9L474 82.7Z" fill="#3b4252" stroke="#3b4252"></path><path d="M425 34.9L401 2.9L354 54.9Z" fill="#333a47" stroke="#333a47"></path><path d="M496 6.9L573 57.9L512 0Z" fill="#353c4b" stroke="#353c4b"></path><path d="M297 73.7L264 112.7L325 104.7Z" fill="#2e3440" stroke="#2e3440"></path><path d="M268 129.6L218 181.3L278 141.4Z" fill="#323845" stroke="#323845"></path><path d="M323 28.9L297 73.7L354 54.9Z" fill="#373e4d" stroke="#373e4d"></path><path d="M354 54.9L297 73.7L325 104.7Z" fill="#353c4b" stroke="#353c4b"></path><path d="M776 419.7L783 368.7L705 415.7Z" fill="#343b49" stroke="#343b49"></path><path d="M765 309L793 291L753 285.1Z" fill="#383f4e" stroke="#383f4e"></path><path d="M776 419.7L705 415.7L732 440.4Z" fill="#2f3542" stroke="#2f3542"></path><path d="M183 157.6L218 181.3L268 129.6Z" fill="#383f4e" stroke="#383f4e"></path><path d="M174 309.9L186 337L260 285.1Z" fill="#353c4b" stroke="#353c4b"></path><path d="M573 57.9L620 2.9L586 0Z" fill="#373e4d" stroke="#373e4d"></path><path d="M496 6.9L483 0L474 82.7Z" fill="#333a47" stroke="#333a47"></path><path d="M488 0L483 0L496 6.9Z" fill="#323845" stroke="#323845"></path><path d="M768 209.3L767 179.4L733 233.1Z" fill="#373e4d" stroke="#373e4d"></path><path d="M784 172.4L767 179.4L768 209.3Z" fill="#343b49" stroke="#343b49"></path><path d="M697 64.9L646 102.6L680 106.6Z" fill="#343b49" stroke="#343b49"></path><path d="M225 359.9L231 447.6L260 409.7Z" fill="#2e3440" stroke="#2e3440"></path><path d="M337 600L379 558.1L306 585.1Z" fill="#323845" stroke="#323845"></path><path d="M437 600L486 600L484 586.1Z" fill="#383f4e" stroke="#383f4e"></path><path d="M484 586.1L506 600L530 578.1Z" fill="#343b49" stroke="#343b49"></path><path d="M530 578.1L603 600L589 544.1Z" fill="#303744" stroke="#303744"></path><path d="M792 335.9L793 291L765 309Z" fill="#343b49" stroke="#343b49"></path><path d="M486 600L506 600L484 586.1Z" fill="#353c4b" stroke="#353c4b"></path><path d="M783 368.7L792 335.9L765 309Z" fill="#373e4d" stroke="#373e4d"></path><path d="M431 600L437 600L439 533.1Z" fill="#303744" stroke="#303744"></path><path d="M342 600L431 600L379 558.1Z" fill="#3b4252" stroke="#3b4252"></path><path d="M379 558.1L431 600L439 533.1Z" fill="#353c4b" stroke="#353c4b"></path><path d="M761 460.6L732 440.4L721 461.6Z" fill="#2f3542" stroke="#2f3542"></path><path d="M761 460.6L776 419.7L732 440.4Z" fill="#353c4b" stroke="#353c4b"></path><path d="M836 369.9L816 314L792 335.9Z" fill="#343b49" stroke="#343b49"></path><path d="M174 309.9L260 285.1L222 219.3Z" fill="#353c4b" stroke="#353c4b"></path><path d="M225 359.9L177 364.7L231 447.6Z" fill="#3b4252" stroke="#3b4252"></path><path d="M483 0L401 2.9L425 34.9Z" fill="#343b49" stroke="#343b49"></path><path d="M754 100.7L697 64.9L726 127.6Z" fill="#323845" stroke="#323845"></path><path d="M726 127.6L697 64.9L680 106.6Z" fill="#353c4b" stroke="#353c4b"></path><path d="M724 519.1L721 461.6L695 480.3Z" fill="#383f4e" stroke="#383f4e"></path><path d="M620 2.9L573 57.9L594 70.9Z" fill="#3a4150" stroke="#3a4150"></path><path d="M767 179.4L753 123.7L726 127.6Z" fill="#373e4d" stroke="#373e4d"></path><path d="M810 218.1L784 172.4L768 209.3Z" fill="#2f3542" stroke="#2f3542"></path><path d="M767 179.4L786 159.6L753 123.7Z" fill="#383f4e" stroke="#383f4e"></path><path d="M155 253.1L174 309.9L222 219.3Z" fill="#3b4252" stroke="#3b4252"></path><path d="M186 337L177 364.7L225 359.9Z" fill="#373e4d" stroke="#373e4d"></path><path d="M697 64.9L662 29.9L646 102.6Z" fill="#3b4252" stroke="#3b4252"></path><path d="M691 551.3L695 480.3L652 538.1Z" fill="#2e3440" stroke="#2e3440"></path><path d="M706 546.1L724 519.1L695 480.3Z" fill="#343b49" stroke="#343b49"></path><path d="M297 73.7L245 89.6L264 112.7Z" fill="#343b49" stroke="#343b49"></path><path d="M352 0L323 28.9L354 54.9Z" fill="#353c4b" stroke="#353c4b"></path><path d="M506 600L603 600L530 578.1Z" fill="#3a4150" stroke="#3a4150"></path><path d="M657 600L691 551.3L652 538.1Z" fill="#303744" stroke="#303744"></path><path d="M142 304.9L177 364.7L186 337Z" fill="#333a47" stroke="#333a47"></path><path d="M662 29.9L620 2.9L594 70.9Z" fill="#373e4d" stroke="#373e4d"></path><path d="M603 600L611 600L589 544.1Z" fill="#383f4e" stroke="#383f4e"></path><path d="M836 369.9L783 368.7L776 419.7Z" fill="#2e3440" stroke="#2e3440"></path><path d="M836 369.9L792 335.9L783 368.7Z" fill="#3b4252" stroke="#3b4252"></path><path d="M792 335.9L816 314L793 291Z" fill="#343b49" stroke="#343b49"></path><path d="M793 291L810 218.1L768 209.3Z" fill="#353c4b" stroke="#353c4b"></path><path d="M243 81.7L245 89.6L297 73.7Z" fill="#303744" stroke="#303744"></path><path d="M264 112.7L183 157.6L268 129.6Z" fill="#333a47" stroke="#333a47"></path><path d="M218 181.3L151 222.3L222 219.3Z" fill="#343b49" stroke="#343b49"></path><path d="M810 218.1L786 159.6L784 172.4Z" fill="#373e4d" stroke="#373e4d"></path><path d="M784 172.4L786 159.6L767 179.4Z" fill="#3a4150" stroke="#3a4150"></path><path d="M483 0L365 0L401 2.9Z" fill="#383f4e" stroke="#383f4e"></path><path d="M401 2.9L365 0L354 54.9Z" fill="#343b49" stroke="#343b49"></path><path d="M715 600L706 546.1L691 551.3Z" fill="#383f4e" stroke="#383f4e"></path><path d="M691 551.3L706 546.1L695 480.3Z" fill="#323845" stroke="#323845"></path><path d="M288 0L280 49.9L323 28.9Z" fill="#3a4150" stroke="#3a4150"></path><path d="M323 28.9L280 49.9L297 73.7Z" fill="#2e3440" stroke="#2e3440"></path><path d="M845 237.3L810 218.1L793 291Z" fill="#303744" stroke="#303744"></path><path d="M811 117.7L754 100.7L753 123.7Z" fill="#303744" stroke="#303744"></path><path d="M753 123.7L754 100.7L726 127.6Z" fill="#373e4d" stroke="#373e4d"></path><path d="M648 0L642 0L662 29.9Z" fill="#353c4b" stroke="#353c4b"></path><path d="M706 546.1L728 531.1L724 519.1Z" fill="#333a47" stroke="#333a47"></path><path d="M724 519.1L778 521.3L761 460.6Z" fill="#373e4d" stroke="#373e4d"></path><path d="M365 0L352 0L354 54.9Z" fill="#3a4150" stroke="#3a4150"></path><path d="M280 49.9L243 81.7L297 73.7Z" fill="#343b49" stroke="#343b49"></path><path d="M245 89.6L183 157.6L264 112.7Z" fill="#323845" stroke="#323845"></path><path d="M157 467.4L222 491.4L231 447.6Z" fill="#383f4e" stroke="#383f4e"></path><path d="M231 447.6L222 491.4L287 464.4Z" fill="#303744" stroke="#303744"></path><path d="M662 29.9L642 0L620 2.9Z" fill="#3b4252" stroke="#3b4252"></path><path d="M620 2.9L642 0L586 0Z" fill="#2f3542" stroke="#2f3542"></path><path d="M648 0L662 29.9L703 0Z" fill="#2f3542" stroke="#2f3542"></path><path d="M246 538.3L262 543.1L300 494.3Z" fill="#2f3542" stroke="#2f3542"></path><path d="M379 558.1L336 492.4L306 585.1Z" fill="#2f3542" stroke="#2f3542"></path><path d="M703 0L662 29.9L697 64.9Z" fill="#333a47" stroke="#333a47"></path><path d="M306 585.1L336 492.4L300 494.3Z" fill="#2f3542" stroke="#2f3542"></path><path d="M262 543.1L277 562.1L300 494.3Z" fill="#353c4b" stroke="#353c4b"></path><path d="M165 131.6L183 157.6L245 89.6Z" fill="#3a4150" stroke="#3a4150"></path><path d="M151 222.3L155 253.1L222 219.3Z" fill="#323845" stroke="#323845"></path><path d="M174 309.9L142 304.9L186 337Z" fill="#3b4252" stroke="#3b4252"></path><path d="M277 562.1L306 585.1L300 494.3Z" fill="#3a4150" stroke="#3a4150"></path><path d="M183 157.6L179 164.4L218 181.3Z" fill="#373e4d" stroke="#373e4d"></path><path d="M611 600L657 600L637 541.3Z" fill="#333a47" stroke="#333a47"></path><path d="M771 600L778 521.3L728 531.1Z" fill="#3a4150" stroke="#3a4150"></path><path d="M262 543.1L260 600L277 562.1Z" fill="#3b4252" stroke="#3b4252"></path><path d="M277 562.1L260 600L306 585.1Z" fill="#353c4b" stroke="#353c4b"></path><path d="M222 491.4L246 538.3L300 494.3Z" fill="#2f3542" stroke="#2f3542"></path><path d="M147 268L149 301L174 309.9Z" fill="#383f4e" stroke="#383f4e"></path><path d="M177 364.7L153 448.6L231 447.6Z" fill="#373e4d" stroke="#373e4d"></path><path d="M147 254.1L147 268L155 253.1Z" fill="#353c4b" stroke="#353c4b"></path><path d="M155 253.1L147 268L174 309.9Z" fill="#333a47" stroke="#333a47"></path><path d="M151 222.3L147 254.1L155 253.1Z" fill="#353c4b" stroke="#353c4b"></path><path d="M179 164.4L151 222.3L218 181.3Z" fill="#303744" stroke="#303744"></path><path d="M147 268L142 304.9L149 301Z" fill="#333a47" stroke="#333a47"></path><path d="M149 301L142 304.9L174 309.9Z" fill="#383f4e" stroke="#383f4e"></path><path d="M125 260.1L142 304.9L147 268Z" fill="#2e3440" stroke="#2e3440"></path><path d="M816 446.4L836 369.9L776 419.7Z" fill="#323845" stroke="#323845"></path><path d="M816 314L845 237.3L793 291Z" fill="#373e4d" stroke="#373e4d"></path><path d="M816 446.4L776 419.7L761 460.6Z" fill="#2f3542" stroke="#2f3542"></path><path d="M811 465.6L761 460.6L778 521.3Z" fill="#323845" stroke="#323845"></path><path d="M811 465.6L816 446.4L761 460.6Z" fill="#353c4b" stroke="#353c4b"></path><path d="M859 365.9L842 365.7L836 369.9Z" fill="#383f4e" stroke="#383f4e"></path><path d="M836 369.9L842 365.7L816 314Z" fill="#343b49" stroke="#343b49"></path><path d="M888 231.1L845 237.3L900 273Z" fill="#333a47" stroke="#333a47"></path><path d="M888 154.4L811 117.7L786 159.6Z" fill="#333a47" stroke="#333a47"></path><path d="M786 159.6L811 117.7L753 123.7Z" fill="#383f4e" stroke="#383f4e"></path><path d="M778 521.3L724 519.1L728 531.1Z" fill="#373e4d" stroke="#373e4d"></path><path d="M861 441.6L859 365.9L836 369.9Z" fill="#323845" stroke="#323845"></path><path d="M715 600L728 531.1L706 546.1Z" fill="#2e3440" stroke="#2e3440"></path><path d="M280 49.9L218 50.9L243 81.7Z" fill="#2f3542" stroke="#2f3542"></path><path d="M243 81.7L165 131.6L245 89.6Z" fill="#303744" stroke="#303744"></path><path d="M352 0L288 0L323 28.9Z" fill="#353c4b" stroke="#353c4b"></path><path d="M787 51.9L703 0L697 64.9Z" fill="#323845" stroke="#323845"></path><path d="M787 51.9L697 64.9L754 100.7Z" fill="#343b49" stroke="#343b49"></path><path d="M888 154.4L786 159.6L810 218.1Z" fill="#323845" stroke="#323845"></path><path d="M183 157.6L165 131.6L179 164.4Z" fill="#2f3542" stroke="#2f3542"></path><path d="M179 164.4L129 131.6L151 222.3Z" fill="#2e3440" stroke="#2e3440"></path><path d="M218 50.9L165 131.6L243 81.7Z" fill="#343b49" stroke="#343b49"></path><path d="M151 222.3L125 260.1L147 254.1Z" fill="#303744" stroke="#303744"></path><path d="M147 254.1L125 260.1L147 268Z" fill="#3a4150" stroke="#3a4150"></path><path d="M70 262L125 260.1L66 232.1Z" fill="#303744" stroke="#303744"></path><path d="M242 0L218 50.9L280 49.9Z" fill="#343b49" stroke="#343b49"></path><path d="M138 422.6L153 448.6L177 364.7Z" fill="#2f3542" stroke="#2f3542"></path><path d="M222 491.4L214 553.3L246 538.3Z" fill="#353c4b" stroke="#353c4b"></path><path d="M138 422.6L177 364.7L113 361.7Z" fill="#353c4b" stroke="#353c4b"></path><path d="M861 441.6L836 369.9L816 446.4Z" fill="#353c4b" stroke="#353c4b"></path><path d="M842 365.7L859 365.9L816 314Z" fill="#3b4252" stroke="#3b4252"></path><path d="M836 506.3L826 466.4L811 465.6Z" fill="#3b4252" stroke="#3b4252"></path><path d="M811 465.6L826 466.4L816 446.4Z" fill="#3b4252" stroke="#3b4252"></path><path d="M657 600L715 600L691 551.3Z" fill="#2f3542" stroke="#2f3542"></path><path d="M862 503.3L861 441.6L826 466.4Z" fill="#303744" stroke="#303744"></path><path d="M153 448.6L157 467.4L231 447.6Z" fill="#2e3440" stroke="#2e3440"></path><path d="M113 361.7L177 364.7L142 304.9Z" fill="#333a47" stroke="#333a47"></path><path d="M153 448.6L146 471.4L157 467.4Z" fill="#3b4252" stroke="#3b4252"></path><path d="M186 564.1L214 553.3L222 491.4Z" fill="#3a4150" stroke="#3a4150"></path><path d="M246 538.3L260 600L262 543.1Z" fill="#3a4150" stroke="#3a4150"></path><path d="M306 585.1L260 600L337 600Z" fill="#383f4e" stroke="#383f4e"></path><path d="M210 45.9L211 47.7L218 50.9Z" fill="#303744" stroke="#303744"></path><path d="M218 50.9L211 47.7L165 131.6Z" fill="#2e3440" stroke="#2e3440"></path><path d="M242 0L210 45.9L218 50.9Z" fill="#353c4b" stroke="#353c4b"></path><path d="M211 47.7L137 78.9L165 131.6Z" fill="#2f3542" stroke="#2f3542"></path><path d="M214 553.3L260 600L246 538.3Z" fill="#353c4b" stroke="#353c4b"></path><path d="M81 329L113 361.7L142 304.9Z" fill="#383f4e" stroke="#383f4e"></path><path d="M811 117.7L787 51.9L754 100.7Z" fill="#373e4d" stroke="#373e4d"></path><path d="M125 457.6L146 471.4L153 448.6Z" fill="#343b49" stroke="#343b49"></path><path d="M157 467.4L186 564.1L222 491.4Z" fill="#2e3440" stroke="#2e3440"></path><path d="M125 457.6L153 448.6L138 422.6Z" fill="#343b49" stroke="#343b49"></path><path d="M288 0L242 0L280 49.9Z" fill="#3a4150" stroke="#3a4150"></path><path d="M827 519.1L811 465.6L778 521.3Z" fill="#303744" stroke="#303744"></path><path d="M826 466.4L861 441.6L816 446.4Z" fill="#3b4252" stroke="#3b4252"></path><path d="M888 231.1L881 209.3L845 237.3Z" fill="#2f3542" stroke="#2f3542"></path><path d="M845 237.3L881 209.3L810 218.1Z" fill="#323845" stroke="#323845"></path><path d="M793 7.9L781 0L787 51.9Z" fill="#323845" stroke="#323845"></path><path d="M845 237.3L816 314L900 273Z" fill="#3a4150" stroke="#3a4150"></path><path d="M98 471.4L125 457.6L138 422.6Z" fill="#2f3542" stroke="#2f3542"></path><path d="M124 527.3L186 564.1L157 467.4Z" fill="#373e4d" stroke="#373e4d"></path><path d="M776 600L827 519.1L778 521.3Z" fill="#333a47" stroke="#333a47"></path><path d="M137 78.9L129 131.6L165 131.6Z" fill="#383f4e" stroke="#383f4e"></path><path d="M165 131.6L129 131.6L179 164.4Z" fill="#333a47" stroke="#333a47"></path><path d="M73 319.9L81 329L142 304.9Z" fill="#383f4e" stroke="#383f4e"></path><path d="M137 78.9L211 47.7L138 72.7Z" fill="#323845" stroke="#323845"></path><path d="M827 519.1L836 506.3L811 465.6Z" fill="#383f4e" stroke="#383f4e"></path><path d="M900 273L816 314L900 328.9Z" fill="#323845" stroke="#323845"></path><path d="M124 527.3L157 467.4L146 471.4Z" fill="#353c4b" stroke="#353c4b"></path><path d="M214 553.3L202 600L260 600Z" fill="#383f4e" stroke="#383f4e"></path><path d="M900 328.9L816 314L859 365.9Z" fill="#373e4d" stroke="#373e4d"></path><path d="M900 351.7L900 328.9L859 365.9Z" fill="#343b49" stroke="#343b49"></path><path d="M715 600L771 600L728 531.1Z" fill="#2f3542" stroke="#2f3542"></path><path d="M827 519.1L862 503.3L836 506.3Z" fill="#3b4252" stroke="#3b4252"></path><path d="M900 440.6L900 351.7L859 365.9Z" fill="#3b4252" stroke="#3b4252"></path><path d="M900 440.6L859 365.9L861 441.6Z" fill="#303744" stroke="#303744"></path><path d="M900 273L900 237.1L888 231.1Z" fill="#3b4252" stroke="#3b4252"></path><path d="M888 231.1L900 228.3L881 209.3Z" fill="#353c4b" stroke="#353c4b"></path><path d="M793 7.9L787 51.9L825 11.9Z" fill="#3a4150" stroke="#3a4150"></path><path d="M73 319.9L142 304.9L125 260.1Z" fill="#353c4b" stroke="#353c4b"></path><path d="M52 356.7L98 471.4L138 422.6Z" fill="#383f4e" stroke="#383f4e"></path><path d="M771 600L776 600L778 521.3Z" fill="#373e4d" stroke="#373e4d"></path><path d="M900 237.1L900 228.3L888 231.1Z" fill="#3a4150" stroke="#3a4150"></path><path d="M787 51.9L811 117.7L850 65.7Z" fill="#3a4150" stroke="#3a4150"></path><path d="M787 51.9L781 0L703 0Z" fill="#373e4d" stroke="#373e4d"></path><path d="M132 600L202 600L186 564.1Z" fill="#3a4150" stroke="#3a4150"></path><path d="M186 564.1L202 600L214 553.3Z" fill="#323845" stroke="#323845"></path><path d="M138 72.7L211 47.7L210 45.9Z" fill="#2f3542" stroke="#2f3542"></path><path d="M70 262L73 319.9L125 260.1Z" fill="#383f4e" stroke="#383f4e"></path><path d="M888 154.4L810 218.1L881 209.3Z" fill="#343b49" stroke="#343b49"></path><path d="M125 260.1L151 222.3L66 232.1Z" fill="#383f4e" stroke="#383f4e"></path><path d="M52 356.7L138 422.6L113 361.7Z" fill="#3b4252" stroke="#3b4252"></path><path d="M161 0L138 72.7L210 45.9Z" fill="#383f4e" stroke="#383f4e"></path><path d="M95 145.4L151 222.3L129 131.6Z" fill="#333a47" stroke="#333a47"></path><path d="M900 156.4L888 154.4L881 209.3Z" fill="#343b49" stroke="#343b49"></path><path d="M900 535.3L862 503.3L886 571.1Z" fill="#2f3542" stroke="#2f3542"></path><path d="M836 506.3L862 503.3L826 466.4Z" fill="#323845" stroke="#323845"></path><path d="M95 145.4L129 131.6L96 123.7Z" fill="#373e4d" stroke="#373e4d"></path><path d="M96 123.7L129 131.6L111 80.9Z" fill="#323845" stroke="#323845"></path><path d="M890 108.6L850 65.7L811 117.7Z" fill="#2f3542" stroke="#2f3542"></path><path d="M52 356.7L113 361.7L81 329Z" fill="#303744" stroke="#303744"></path><path d="M125 457.6L98 471.4L146 471.4Z" fill="#373e4d" stroke="#373e4d"></path><path d="M900 487.4L900 440.6L861 441.6Z" fill="#373e4d" stroke="#373e4d"></path><path d="M71 182.3L66 232.1L151 222.3Z" fill="#323845" stroke="#323845"></path><path d="M45 342.9L81 329L73 319.9Z" fill="#303744" stroke="#303744"></path><path d="M900 228.3L900 156.4L881 209.3Z" fill="#343b49" stroke="#343b49"></path><path d="M888 154.4L890 108.6L811 117.7Z" fill="#3b4252" stroke="#3b4252"></path><path d="M98 471.4L124 527.3L146 471.4Z" fill="#3a4150" stroke="#3a4150"></path><path d="M111 80.9L129 131.6L137 78.9Z" fill="#303744" stroke="#303744"></path><path d="M95 145.4L71 182.3L151 222.3Z" fill="#2f3542" stroke="#2f3542"></path><path d="M900 156.4L900 144.6L888 154.4Z" fill="#343b49" stroke="#343b49"></path><path d="M88 497.3L122 531.1L124 527.3Z" fill="#2f3542" stroke="#2f3542"></path><path d="M124 527.3L122 531.1L186 564.1Z" fill="#343b49" stroke="#343b49"></path><path d="M76 154.4L71 182.3L95 145.4Z" fill="#2e3440" stroke="#2e3440"></path><path d="M138 72.7L111 80.9L137 78.9Z" fill="#2e3440" stroke="#2e3440"></path><path d="M68 118.7L76 154.4L95 145.4Z" fill="#3b4252" stroke="#3b4252"></path><path d="M77 16.9L111 80.9L138 72.7Z" fill="#3b4252" stroke="#3b4252"></path><path d="M850 65.7L825 11.9L787 51.9Z" fill="#303744" stroke="#303744"></path><path d="M793 7.9L832 0L781 0Z" fill="#3a4150" stroke="#3a4150"></path><path d="M832 0L825 11.9L843 0Z" fill="#303744" stroke="#303744"></path><path d="M68 118.7L95 145.4L96 123.7Z" fill="#333a47" stroke="#333a47"></path><path d="M900 144.6L890 108.6L888 154.4Z" fill="#343b49" stroke="#343b49"></path><path d="M45 342.9L73 319.9L0 325.9Z" fill="#353c4b" stroke="#353c4b"></path><path d="M45 342.9L52 356.7L81 329Z" fill="#303744" stroke="#303744"></path><path d="M45 342.9L0 338L21 364.7Z" fill="#353c4b" stroke="#353c4b"></path><path d="M242 0L161 0L210 45.9Z" fill="#373e4d" stroke="#373e4d"></path><path d="M900 535.3L900 487.4L862 503.3Z" fill="#343b49" stroke="#343b49"></path><path d="M862 503.3L900 487.4L861 441.6Z" fill="#3b4252" stroke="#3b4252"></path><path d="M73 319.9L70 262L0 325.9Z" fill="#3b4252" stroke="#3b4252"></path><path d="M55 503.3L88 497.3L98 471.4Z" fill="#3a4150" stroke="#3a4150"></path><path d="M98 471.4L88 497.3L124 527.3Z" fill="#2f3542" stroke="#2f3542"></path><path d="M12 453.6L98 471.4L52 356.7Z" fill="#2f3542" stroke="#2f3542"></path><path d="M161 0L155 0L138 72.7Z" fill="#343b49" stroke="#343b49"></path><path d="M843 0L825 11.9L850 65.7Z" fill="#343b49" stroke="#343b49"></path><path d="M825 11.9L832 0L793 7.9Z" fill="#3b4252" stroke="#3b4252"></path><path d="M900 45.7L843 0L850 65.7Z" fill="#3a4150" stroke="#3a4150"></path><path d="M16 88.6L68 118.7L111 80.9Z" fill="#2e3440" stroke="#2e3440"></path><path d="M111 80.9L68 118.7L96 123.7Z" fill="#353c4b" stroke="#353c4b"></path><path d="M76 154.4L9 185.4L71 182.3Z" fill="#333a47" stroke="#333a47"></path><path d="M9 185.4L13 234.3L66 232.1Z" fill="#343b49" stroke="#343b49"></path><path d="M776 600L849 600L827 519.1Z" fill="#323845" stroke="#323845"></path><path d="M900 144.6L900 67.9L890 108.6Z" fill="#3b4252" stroke="#3b4252"></path><path d="M890 108.6L900 67.9L850 65.7Z" fill="#353c4b" stroke="#353c4b"></path><path d="M122 531.1L132 600L186 564.1Z" fill="#303744" stroke="#303744"></path><path d="M72 538.1L132 600L122 531.1Z" fill="#2f3542" stroke="#2f3542"></path><path d="M886 571.1L862 503.3L827 519.1Z" fill="#2f3542" stroke="#2f3542"></path><path d="M13 234.3L70 262L66 232.1Z" fill="#333a47" stroke="#333a47"></path><path d="M45 342.9L21 364.7L52 356.7Z" fill="#383f4e" stroke="#383f4e"></path><path d="M88 497.3L72 538.1L122 531.1Z" fill="#2e3440" stroke="#2e3440"></path><path d="M849 600L886 571.1L827 519.1Z" fill="#3a4150" stroke="#3a4150"></path><path d="M900 67.9L900 45.7L850 65.7Z" fill="#353c4b" stroke="#353c4b"></path><path d="M12 453.6L55 503.3L98 471.4Z" fill="#323845" stroke="#323845"></path><path d="M55 503.3L72 538.1L88 497.3Z" fill="#2e3440" stroke="#2e3440"></path><path d="M9 185.4L66 232.1L71 182.3Z" fill="#333a47" stroke="#333a47"></path><path d="M6 484.4L51 518.1L55 503.3Z" fill="#333a47" stroke="#333a47"></path><path d="M55 503.3L51 518.1L72 538.1Z" fill="#353c4b" stroke="#353c4b"></path><path d="M72 538.1L62 600L132 600Z" fill="#3b4252" stroke="#3b4252"></path><path d="M13 234.3L0 325.9L70 262Z" fill="#323845" stroke="#323845"></path><path d="M0 411.6L12 453.6L52 356.7Z" fill="#373e4d" stroke="#373e4d"></path><path d="M0 325.9L0 338L45 342.9Z" fill="#3a4150" stroke="#3a4150"></path><path d="M0 338L0 348.7L21 364.7Z" fill="#353c4b" stroke="#353c4b"></path><path d="M0 131.6L9 185.4L76 154.4Z" fill="#3b4252" stroke="#3b4252"></path><path d="M13 234.3L0 229.3L0 325.9Z" fill="#2e3440" stroke="#2e3440"></path><path d="M0 183.4L9 185.4L0 131.6Z" fill="#303744" stroke="#303744"></path><path d="M0 226.1L0 229.3L13 234.3Z" fill="#303744" stroke="#303744"></path><path d="M9 185.4L0 226.1L13 234.3Z" fill="#343b49" stroke="#343b49"></path><path d="M849 600L900 592.1L886 571.1Z" fill="#373e4d" stroke="#373e4d"></path><path d="M886 571.1L900 592.1L900 535.3Z" fill="#323845" stroke="#323845"></path><path d="M155 0L77 16.9L138 72.7Z" fill="#323845" stroke="#323845"></path><path d="M0 411.6L52 356.7L21 364.7Z" fill="#2f3542" stroke="#2f3542"></path><path d="M0 348.7L0 411.6L21 364.7Z" fill="#343b49" stroke="#343b49"></path><path d="M900 45.7L900 0L843 0Z" fill="#343b49" stroke="#343b49"></path><path d="M0 131.6L76 154.4L68 118.7Z" fill="#2e3440" stroke="#2e3440"></path><path d="M9 185.4L0 183.4L0 226.1Z" fill="#3a4150" stroke="#3a4150"></path><path d="M849 600L900 600L900 592.1Z" fill="#303744" stroke="#303744"></path><path d="M155 0L78 0L77 16.9Z" fill="#333a47" stroke="#333a47"></path><path d="M16 88.6L0 131.6L68 118.7Z" fill="#373e4d" stroke="#373e4d"></path><path d="M78 0L76 0L77 16.9Z" fill="#353c4b" stroke="#353c4b"></path><path d="M16 88.6L111 80.9L77 16.9Z" fill="#333a47" stroke="#333a47"></path><path d="M0 482.3L6 484.4L12 453.6Z" fill="#353c4b" stroke="#353c4b"></path><path d="M12 453.6L6 484.4L55 503.3Z" fill="#3b4252" stroke="#3b4252"></path><path d="M60 600L62 600L72 538.1Z" fill="#353c4b" stroke="#353c4b"></path><path d="M0 55.7L16 88.6L77 16.9Z" fill="#3a4150" stroke="#3a4150"></path><path d="M60 600L72 538.1L0 544.1Z" fill="#2f3542" stroke="#2f3542"></path><path d="M0 411.6L0 482.3L12 453.6Z" fill="#2f3542" stroke="#2f3542"></path><path d="M0 544.1L72 538.1L51 518.1Z" fill="#3a4150" stroke="#3a4150"></path><path d="M0 490.4L51 518.1L6 484.4Z" fill="#373e4d" stroke="#373e4d"></path><path d="M0 482.3L0 490.4L6 484.4Z" fill="#373e4d" stroke="#373e4d"></path><path d="M0 27.9L0 55.7L77 16.9Z" fill="#3b4252" stroke="#3b4252"></path><path d="M16 88.6L0 55.7L0 131.6Z" fill="#383f4e" stroke="#383f4e"></path><path d="M0 490.4L0 544.1L51 518.1Z" fill="#343b49" stroke="#343b49"></path><path d="M0 0L0 27.9L77 16.9Z" fill="#333a47" stroke="#333a47"></path><path d="M76 0L0 0L77 16.9Z" fill="#3a4150" stroke="#3a4150"></path><path d="M0 544.1L0 600L60 600Z" fill="#333a47" stroke="#333a47"></path></g></svg>