<svg id="visual" viewBox="0 0 400 100" width="400" height="100" xmlns="http://www.w3.org/2000/svg" xmlns:xlink="http://www.w3.org/1999/xlink" version="1.1"><path d="M0 7L36 7L36 14L73 14L73 14L109 14L109 7L145 7L145 10L182 10L182 7L218 7L218 10L255 10L255 13L291 13L291 13L327 13L327 7L364 7L364 10L400 10L400 12L400 0L400 0L364 0L364 0L327 0L327 0L291 0L291 0L255 0L255 0L218 0L218 0L182 0L182 0L145 0L145 0L109 0L109 0L73 0L73 0L36 0L36 0L0 0Z" fill="#5e81ac"></path><path d="M0 34L36 34L36 32L73 32L73 42L109 42L109 44L145 44L145 36L182 36L182 46L218 46L218 42L255 42L255 29L291 29L291 27L327 27L327 32L364 32L364 43L400 43L400 37L400 10L400 8L364 8L364 5L327 5L327 11L291 11L291 11L255 11L255 8L218 8L218 5L182 5L182 8L145 8L145 5L109 5L109 12L73 12L73 12L36 12L36 5L0 5Z" fill="#567095"></path><path d="M0 70L36 70L36 82L73 82L73 76L109 76L109 81L145 81L145 71L182 71L182 67L218 67L218 66L255 66L255 67L291 67L291 59L327 59L327 66L364 66L364 63L400 63L400 68L400 35L400 41L364 41L364 30L327 30L327 25L291 25L291 27L255 27L255 40L218 40L218 44L182 44L182 34L145 34L145 42L109 42L109 40L73 40L73 30L36 30L36 32L0 32Z" fill="#4e607e"></path><path d="M0 88L36 88L36 92L73 92L73 89L109 89L109 94L145 94L145 82L182 82L182 79L218 79L218 85L255 85L255 80L291 80L291 83L327 83L327 81L364 81L364 86L400 86L400 87L400 66L400 61L364 61L364 64L327 64L327 57L291 57L291 65L255 65L255 64L218 64L218 65L182 65L182 69L145 69L145 79L109 79L109 74L73 74L73 80L36 80L36 68L0 68Z" fill="#455168"></path><path d="M0 101L36 101L36 101L73 101L73 101L109 101L109 101L145 101L145 101L182 101L182 101L218 101L218 101L255 101L255 101L291 101L291 101L327 101L327 101L364 101L364 101L400 101L400 101L400 85L400 84L364 84L364 79L327 79L327 81L291 81L291 78L255 78L255 83L218 83L218 77L182 77L182 80L145 80L145 92L109 92L109 87L73 87L73 90L36 90L36 86L0 86Z" fill="#3b4252"></path></svg>