<svg id="visual" viewBox="0 0 400 100" width="400" height="100" xmlns="http://www.w3.org/2000/svg" xmlns:xlink="http://www.w3.org/1999/xlink" version="1.1"><rect x="0" y="0" width="400" height="100" fill="#3B4252"></rect><path d="M0 54L57 54L57 58L114 58L114 48L171 48L171 53L229 53L229 57L286 57L286 57L343 57L343 51L400 51L400 51L400 101L400 101L343 101L343 101L286 101L286 101L229 101L229 101L171 101L171 101L114 101L114 101L57 101L57 101L0 101Z" fill="#5e81ac"></path><path d="M0 65L57 65L57 65L114 65L114 58L171 58L171 57L229 57L229 58L286 58L286 65L343 65L343 67L400 67L400 74L400 101L400 101L343 101L343 101L286 101L286 101L229 101L229 101L171 101L171 101L114 101L114 101L57 101L57 101L0 101Z" fill="#475974"></path><path d="M0 79L57 79L57 78L114 78L114 89L171 89L171 89L229 89L229 86L286 86L286 80L343 80L343 77L400 77L400 76L400 101L400 101L343 101L343 101L286 101L286 101L229 101L229 101L171 101L171 101L114 101L114 101L57 101L57 101L0 101Z" fill="#2e3440"></path></svg>